<?xml version="1.0" standalone="no"?>
<!DOCTYPE svg PUBLIC "-//W3C//DTD SVG 20010904//EN"
 "http://www.w3.org/TR/2001/REC-SVG-20010904/DTD/svg10.dtd">
<svg version="1.0" xmlns="http://www.w3.org/2000/svg"
 width="461.000000pt" height="461.000000pt" viewBox="0 0 461.000000 461.000000"
 preserveAspectRatio="xMidYMid meet">
<metadata>
Created by potrace 1.14, written by Peter Selinger 2001-2017
</metadata>
<g transform="translate(0.000000,461.000000) scale(0.100000,-0.100000)"
fill="#000000" stroke="none">
<path d="M2129 4605 c-2 -1 -31 -5 -64 -8 -248 -21 -554 -111 -801 -237 -306
-156 -581 -382 -777 -640 -31 -41 -61 -80 -67 -87 -33 -40 -152 -245 -195
-338 -52 -109 -102 -234 -109 -271 -2 -10 -9 -32 -16 -49 -15 -39 -60 -228
-66 -280 -3 -22 -7 -45 -9 -52 -19 -58 -27 -439 -13 -578 33 -306 134 -624
281 -883 51 -89 55 -95 92 -151 17 -24 35 -51 40 -60 14 -21 123 -158 160
-200 225 -255 534 -473 854 -601 156 -63 354 -119 477 -136 27 -3 52 -8 55
-10 30 -18 452 -26 589 -11 262 29 564 121 806 247 94 49 247 141 264 160 3 3
28 21 55 39 28 19 57 42 65 51 8 8 36 32 61 52 91 73 232 222 321 339 239 314
389 664 452 1054 21 132 29 445 14 590 -83 797 -582 1499 -1308 1843 -175 82
-397 156 -534 176 -21 4 -41 8 -45 10 -3 2 -35 7 -71 11 -36 4 -69 10 -74 13
-10 6 -431 13 -437 7z"/>
</g>
</svg>
